<svg width="48" height="57" viewBox="0 0 48 57" fill="none" xmlns="http://www.w3.org/2000/svg">
<path d="M7.75259 57H39.2999C44.5019 57 47.0525 54.7989 47.0525 49.9965V29.672C47.0525 25.4127 45.0389 23.2116 40.9444 22.7543V16.0938C40.9444 5.23119 32.4535 0 23.5263 0C14.599 0 6.1081 5.23119 6.1081 16.0938V22.7543C2.01366 23.2116 0 25.4127 0 29.672V49.9965C0 54.7989 2.55064 57 7.75259 57ZM12.5518 15.5792C12.5518 8.91876 17.5188 5.25978 23.5263 5.25978C29.5001 5.25978 34.5007 8.91876 34.5007 15.5792V22.6685H12.5518V15.5792ZM8.82654 51.826C7.34986 51.826 6.61152 51.2257 6.61152 49.7392V29.9293C6.61152 28.4142 7.34986 27.8711 8.82654 27.8711H38.2595C39.7362 27.8711 40.441 28.4142 40.441 29.9293V49.7392C40.441 51.2257 39.7362 51.826 38.2595 51.826H8.82654Z" fill="#0B1001"/>
</svg>
